<?xml version="1.0" encoding="UTF-8"?>
<svg xmlns="http://www.w3.org/2000/svg" width="1024" height="1024" viewBox="0 0 1024 1024" shape-rendering="geometricPrecision">
  <rect width="1024" height="1024" fill="#ffffff"/>
  <path d="M 271 785 L 267 786 L 264 787 L 261 789 L 258 791 L 254 796 L 253 798 L 252 800 L 251 805 L 251 809 L 252 813 L 253 815 L 254 817 L 256 820 L 259 823 L 262 825 L 264 826 L 267 827 L 271 828 L 276 828 L 280 827 L 283 826 L 286 824 L 292 818 L 293 816 L 294 814 L 295 811 L 295 802 L 294 799 L 293 797 L 292 795 L 285 788 L 283 787 L 280 786 L 275 785 Z" fill="#89bed5" fill-rule="evenodd"/>
  <path d="M 154 95 L 147 96 L 143 97 L 140 98 L 137 99 L 132 101 L 126 104 L 123 106 L 119 109 L 107 121 L 105 124 L 103 127 L 101 131 L 98 137 L 97 140 L 96 143 L 95 147 L 94 153 L 94 869 L 95 875 L 96 879 L 99 888 L 102 894 L 104 897 L 110 905 L 116 911 L 121 915 L 124 917 L 127 919 L 135 923 L 144 926 L 148 927 L 156 928 L 485 927 L 533 927 L 584 927 L 587 927 L 651 927 L 653 927 L 867 928 L 875 927 L 879 926 L 883 925 L 886 924 L 889 923 L 895 920 L 904 914 L 915 903 L 918 899 L 920 896 L 924 888 L 927 879 L 928 875 L 929 868 L 929 155 L 928 148 L 927 143 L 926 140 L 925 137 L 923 133 L 920 127 L 918 124 L 916 121 L 909 113 L 903 108 L 899 105 L 895 103 L 887 99 L 884 98 L 880 97 L 876 96 L 870 95 Z M 368 721 L 371 721 L 372 722 L 376 722 L 380 723 L 382 724 L 384 725 L 387 727 L 393 733 L 395 736 L 396 738 L 397 740 L 397 745 L 398 746 L 398 750 L 397 755 L 396 758 L 395 760 L 393 763 L 386 770 L 380 773 L 377 774 L 372 775 L 363 775 L 360 774 L 357 773 L 355 772 L 353 771 L 348 767 L 347 766 L 344 762 L 343 760 L 342 758 L 341 755 L 341 751 L 340 750 L 340 747 L 341 746 L 341 742 L 342 739 L 343 737 L 344 735 L 347 731 L 350 728 L 353 726 L 359 723 L 362 722 Z M 221 559 L 222 565 L 223 570 L 226 581 L 228 587 L 231 596 L 233 601 L 235 606 L 241 618 L 244 623 L 247 628 L 249 631 L 251 634 L 254 638 L 257 642 L 261 647 L 268 655 L 275 662 L 277 664 L 286 672 L 295 679 L 299 682 L 306 687 L 309 689 L 320 695 L 323 697 L 325 699 L 325 713 L 324 715 L 323 717 L 321 719 L 320 721 L 317 728 L 316 731 L 315 736 L 314 745 L 314 751 L 315 757 L 316 761 L 317 764 L 318 767 L 320 771 L 323 777 L 325 780 L 337 792 L 340 794 L 345 796 L 347 797 L 348 802 L 347 807 L 346 811 L 345 815 L 342 824 L 340 828 L 337 834 L 332 841 L 327 847 L 319 855 L 313 860 L 309 863 L 305 866 L 302 868 L 299 870 L 292 874 L 286 877 L 275 882 L 267 885 L 264 886 L 254 889 L 250 890 L 241 892 L 230 894 L 223 895 L 214 896 L 162 896 L 158 895 L 155 894 L 152 893 L 150 892 L 148 891 L 145 889 L 141 886 L 135 880 L 132 876 L 128 868 L 127 865 L 126 861 L 126 717 L 128 711 L 130 704 L 133 695 L 136 687 L 139 679 L 141 674 L 143 669 L 146 662 L 156 642 L 160 635 L 164 628 L 167 623 L 171 617 L 178 608 L 179 605 L 183 600 L 191 590 L 196 584 Z M 629 195 L 666 195 L 677 196 L 690 198 L 695 199 L 699 200 L 701 202 L 698 204 L 691 207 L 682 213 L 673 217 L 666 221 L 661 224 L 656 227 L 648 232 L 636 240 L 626 247 L 619 252 L 615 255 L 606 262 L 601 267 L 596 270 L 589 276 L 580 284 L 560 304 L 550 315 L 546 320 L 542 325 L 539 329 L 536 333 L 529 343 L 527 346 L 525 349 L 516 364 L 506 384 L 502 393 L 500 398 L 497 406 L 494 415 L 489 430 L 487 437 L 485 444 L 484 448 L 481 461 L 479 475 L 477 484 L 476 488 L 475 491 L 471 499 L 469 502 L 465 506 L 462 508 L 460 509 L 457 510 L 442 510 L 436 513 L 432 517 L 431 519 L 430 521 L 430 524 L 429 525 L 429 527 L 430 528 L 430 531 L 431 533 L 432 535 L 436 539 L 439 541 L 442 542 L 445 543 L 461 543 L 465 542 L 469 541 L 474 539 L 476 538 L 481 535 L 485 532 L 493 524 L 497 519 L 500 514 L 504 506 L 506 501 L 507 498 L 508 495 L 509 488 L 511 486 L 516 487 L 523 489 L 534 490 L 569 490 L 581 489 L 588 488 L 594 487 L 609 484 L 625 480 L 632 478 L 650 472 L 655 470 L 667 465 L 675 461 L 693 452 L 698 449 L 703 446 L 711 441 L 714 439 L 721 434 L 725 431 L 729 428 L 734 424 L 739 420 L 745 415 L 757 404 L 763 397 L 767 394 L 768 393 L 778 382 L 783 376 L 788 370 L 792 365 L 801 353 L 808 343 L 816 331 L 818 326 L 821 322 L 822 350 L 821 361 L 820 370 L 819 376 L 818 382 L 817 387 L 816 392 L 810 416 L 807 425 L 801 443 L 799 448 L 794 460 L 789 471 L 787 475 L 784 481 L 776 496 L 767 511 L 755 529 L 750 536 L 747 540 L 740 549 L 735 555 L 730 561 L 723 569 L 704 588 L 690 601 L 684 605 L 678 611 L 669 618 L 657 627 L 651 631 L 642 637 L 634 642 L 629 645 L 624 648 L 608 657 L 602 660 L 589 666 L 580 670 L 573 673 L 568 675 L 560 678 L 551 681 L 539 684 L 536 686 L 529 688 L 522 690 L 510 693 L 495 696 L 477 699 L 467 700 L 458 701 L 441 702 L 422 702 L 410 701 L 401 700 L 395 699 L 390 698 L 385 697 L 374 694 L 365 691 L 360 689 L 340 679 L 334 675 L 322 667 L 313 660 L 308 656 L 294 643 L 290 639 L 283 631 L 279 626 L 276 622 L 270 613 L 267 608 L 263 600 L 261 595 L 259 590 L 255 578 L 254 574 L 253 570 L 252 565 L 251 560 L 250 554 L 249 546 L 248 535 L 248 509 L 249 500 L 250 492 L 251 486 L 252 481 L 254 472 L 257 462 L 260 453 L 266 438 L 269 431 L 272 425 L 277 415 L 284 403 L 293 389 L 297 385 L 301 378 L 305 373 L 309 368 L 314 362 L 320 355 L 331 343 L 343 331 L 358 317 L 371 306 L 386 294 L 390 291 L 397 286 L 404 281 L 416 273 L 430 264 L 442 257 L 449 253 L 462 246 L 476 239 L 487 234 L 496 230 L 503 227 L 508 225 L 521 220 L 532 216 L 535 216 L 541 213 L 544 212 L 565 206 L 577 203 L 592 200 L 603 198 L 610 197 L 618 196 Z M 166 126 L 856 126 L 863 127 L 867 128 L 870 129 L 878 133 L 882 137 L 883 137 L 886 140 L 886 141 L 890 145 L 892 148 L 893 150 L 894 152 L 895 155 L 896 158 L 897 162 L 897 861 L 896 865 L 894 870 L 893 872 L 892 874 L 890 877 L 887 881 L 881 887 L 878 889 L 875 891 L 873 892 L 871 893 L 868 894 L 865 895 L 860 896 L 348 895 L 351 893 L 354 892 L 359 889 L 362 887 L 366 884 L 371 880 L 377 875 L 382 870 L 382 869 L 388 863 L 392 858 L 394 855 L 396 852 L 401 843 L 403 838 L 405 833 L 406 830 L 408 829 L 410 829 L 414 827 L 420 824 L 429 818 L 434 814 L 444 804 L 448 799 L 454 790 L 456 786 L 459 780 L 461 775 L 462 772 L 471 771 L 479 771 L 497 768 L 517 764 L 533 760 L 540 758 L 553 754 L 565 750 L 573 747 L 578 745 L 583 743 L 595 738 L 603 734 L 629 721 L 641 714 L 646 711 L 654 706 L 666 698 L 673 693 L 677 690 L 685 683 L 689 681 L 695 676 L 700 672 L 709 664 L 723 651 L 731 643 L 732 642 L 745 628 L 756 615 L 761 609 L 767 601 L 776 589 L 790 568 L 795 560 L 799 553 L 803 546 L 816 521 L 817 519 L 820 512 L 824 503 L 827 496 L 830 488 L 833 480 L 836 471 L 841 456 L 843 449 L 843 445 L 846 437 L 847 433 L 849 424 L 852 409 L 853 403 L 854 396 L 855 389 L 856 380 L 856 366 L 857 333 L 856 321 L 855 315 L 854 309 L 853 304 L 852 300 L 851 296 L 850 293 L 849 290 L 846 284 L 838 276 L 836 275 L 834 274 L 831 273 L 819 273 L 816 274 L 814 275 L 811 277 L 804 284 L 801 291 L 792 306 L 778 327 L 774 331 L 770 338 L 766 343 L 762 348 L 757 354 L 750 362 L 723 389 L 716 395 L 711 399 L 706 403 L 695 411 L 683 419 L 678 422 L 659 432 L 657 433 L 655 434 L 648 437 L 643 439 L 638 441 L 617 448 L 601 452 L 596 453 L 591 454 L 585 455 L 579 456 L 571 457 L 558 457 L 557 458 L 545 458 L 533 456 L 534 454 L 538 450 L 540 446 L 548 438 L 554 435 L 559 434 L 565 431 L 569 428 L 570 427 L 570 426 L 572 424 L 575 418 L 576 412 L 578 406 L 579 404 L 581 401 L 586 396 L 589 394 L 592 393 L 595 392 L 600 392 L 603 391 L 611 387 L 616 382 L 618 379 L 619 377 L 620 374 L 621 371 L 621 366 L 622 362 L 625 356 L 627 353 L 633 346 L 639 339 L 650 328 L 657 319 L 666 310 L 673 301 L 683 291 L 691 282 L 699 273 L 714 256 L 721 248 L 728 240 L 733 233 L 740 226 L 748 217 L 749 215 L 750 213 L 751 209 L 751 198 L 750 195 L 749 193 L 748 191 L 746 188 L 741 183 L 738 181 L 724 174 L 718 172 L 709 169 L 697 166 L 691 165 L 685 164 L 676 163 L 667 162 L 623 162 L 612 164 L 611 163 L 602 164 L 595 165 L 588 166 L 582 167 L 562 171 L 546 175 L 535 178 L 515 184 L 498 190 L 478 198 L 471 201 L 462 205 L 450 211 L 424 224 L 415 229 L 410 233 L 405 235 L 400 238 L 386 247 L 374 255 L 367 260 L 355 269 L 335 285 L 328 291 L 320 298 L 303 314 L 298 319 L 284 334 L 278 341 L 272 348 L 268 353 L 265 358 L 260 363 L 256 369 L 246 383 L 244 388 L 238 396 L 235 403 L 230 410 L 229 412 L 228 414 L 228 416 L 227 418 L 221 428 L 218 435 L 215 442 L 213 447 L 210 455 L 204 473 L 202 480 L 199 492 L 196 507 L 195 513 L 195 520 L 193 524 L 187 528 L 164 551 L 156 560 L 152 565 L 148 570 L 140 581 L 136 587 L 130 596 L 127 602 L 126 161 L 127 157 L 129 152 L 130 150 L 131 148 L 133 145 L 137 140 L 139 138 L 144 134 L 147 132 L 153 129 L 156 128 L 159 127 Z" fill="#89bed5" fill-rule="evenodd"/>
</svg>